<?xml version="1.0" encoding="iso-8859-1"?>
<!-- Generator: Adobe Illustrator 19.0.0, SVG Export Plug-In . SVG Version: 6.00 Build 0)  -->
<svg version="1.1" id="Capa_1" xmlns="http://www.w3.org/2000/svg" xmlns:xlink="http://www.w3.org/1999/xlink" x="0px" y="0px"
	 viewBox="0 0 491.52 491.52" style="enable-background:new 0 0 491.52 491.52;" xml:space="preserve">
<circle style="fill:#334D5C;" cx="245.76" cy="245.76" r="245.76"/>
<g>
	<polygon style="fill:#F6C358;" points="245.76,301.568 386.484,223.768 105.036,223.768 	"/>
	<path style="fill:#F6C358;" d="M234.836,111.704L104.96,223.768h0.076h281.447h0.076L256.684,111.704
		C250.409,106.288,241.113,106.288,234.836,111.704z"/>
</g>
<path style="fill:#FCD462;" d="M105.036,223.768h-0.076v143.387c0,3.888,1.381,7.42,3.608,10.26l137.192-75.847L105.036,223.768z"/>
<path style="fill:#64798A;" d="M350.93,121.638h-210.34c-2.968,0-5.373,2.405-5.373,5.372v35.448h221.085V127.01
	C356.302,124.043,353.897,121.638,350.93,121.638z"/>
<path style="fill:#FFFFFF;" d="M356.302,162.459H182.531c-1.131,0-2.136-0.721-2.499-1.793l-2.957-8.746
	c-0.362-1.072-1.368-1.793-2.5-1.793h-27.329c-1.132,0-2.137,0.721-2.5,1.793l-2.957,8.746c-0.362,1.072-1.368,1.793-2.5,1.793
	h-4.071V322.49h221.085V162.459z"/>
<path style="fill:#D5D6DB;" d="M135.218,322.49v14.86c0,2.967,2.405,5.372,5.372,5.372H350.93c2.967,0,5.372-2.405,5.372-5.372
	v-14.86H135.218z"/>
<circle style="fill:#FCD462;" cx="299.571" cy="136.018" r="6.067"/>
<circle style="fill:#44C4A1;" cx="321.193" cy="136.018" r="6.067"/>
<circle style="fill:#E56353;" cx="342.825" cy="136.018" r="6.067"/>
<path style="fill:#EBF0F3;" d="M183.523,158.439h37.457l-2.205-6.519c-0.363-1.072-1.368-1.793-2.5-1.793h-35.661
	c0.077,0.177,0.203,0.323,0.266,0.508L183.523,158.439z"/>
<rect x="135.219" y="171.776" style="fill:#E1E6E9;" width="221.082" height="57.585"/>
<circle style="fill:#D5D6DB;" cx="147.2" cy="200.55" r="5.53"/>
<polygon style="fill:#EBF0F3;" points="144.18,200.567 147.944,204.331 147.944,196.802 "/>
<circle style="fill:#D5D6DB;" cx="344.32" cy="200.55" r="5.53"/>
<polygon style="fill:#EBF0F3;" points="347.34,200.567 343.576,204.331 343.576,196.802 "/>
<circle style="fill:#27A2DB;" cx="313.088" cy="331.11" r="4.178"/>
<circle style="fill:#E56353;" cx="326.042" cy="331.11" r="4.178"/>
<circle style="fill:#44C4A1;" cx="339.046" cy="331.11" r="4.178"/>
<g>
	<rect x="144.179" y="329.114" style="fill:#64798A;" width="59.489" height="4.019"/>
	<rect x="146.534" y="291.405" style="fill:#64798A;" width="39.782" height="4.019"/>
	<rect x="146.534" y="306.949" style="fill:#64798A;" width="26.675" height="4.019"/>
	<rect x="199.424" y="291.405" style="fill:#64798A;" width="39.782" height="4.019"/>
	<rect x="199.424" y="306.949" style="fill:#64798A;" width="26.675" height="4.019"/>
	<rect x="252.314" y="291.405" style="fill:#64798A;" width="39.782" height="4.019"/>
	<rect x="252.314" y="306.949" style="fill:#64798A;" width="26.675" height="4.019"/>
	<rect x="305.203" y="291.405" style="fill:#64798A;" width="39.782" height="4.019"/>
	<rect x="305.203" y="306.949" style="fill:#64798A;" width="26.675" height="4.019"/>
</g>
<path style="fill:#44C4A1;" d="M235.918,238.993h-33.203c-1.817,0-3.291,1.473-3.291,3.29v33.204c0,1.817,1.474,3.29,3.291,3.29
	h33.203c1.817,0,3.29-1.473,3.29-3.29v-33.204C239.208,240.466,237.735,238.993,235.918,238.993z"/>
<path style="fill:#F6C358;" d="M183.03,238.993h-33.204c-1.817,0-3.29,1.473-3.29,3.29v33.204c0,1.817,1.473,3.29,3.29,3.29h33.204
	c1.817,0,3.29-1.473,3.29-3.29v-33.204C186.32,240.466,184.847,238.993,183.03,238.993z"/>
<path style="fill:#E56353;" d="M288.805,238.993h-33.203c-1.817,0-3.29,1.473-3.29,3.29v33.204c0,1.817,1.473,3.29,3.29,3.29h33.203
	c1.817,0,3.291-1.473,3.291-3.29v-33.204C292.096,240.466,290.622,238.993,288.805,238.993z"/>
<path style="fill:#27A2DB;" d="M341.693,238.993H308.49c-1.817,0-3.29,1.473-3.29,3.29v33.204c0,1.817,1.473,3.29,3.29,3.29h33.204
	c1.817,0,3.29-1.473,3.29-3.29v-33.204C344.983,240.466,343.51,238.993,341.693,238.993z"/>
<rect x="143.242" y="129.951" style="fill:#EBF0F3;" width="141.153" height="12.134"/>
<path style="fill:#FCD462;" d="M386.56,223.768h-0.076l-140.724,77.8l137.194,75.847c2.225-2.84,3.606-6.372,3.606-10.26V223.768z"
	/>
<path style="fill:#F6C358;" d="M108.568,377.415c3.061,3.907,7.768,6.462,13.115,6.462h248.156c5.348,0,10.054-2.556,13.115-6.462
	L245.76,301.568L108.568,377.415z"/>
<polygon style="fill:#FCD462;" points="105.036,223.768 104.96,223.768 104.96,353.129 245.76,301.568 "/>
<path style="fill:#DC8744;" d="M104.96,353.129v14.026c0,3.888,1.381,7.42,3.608,10.26l137.192-75.847L104.96,353.129z"/>
<g>
</g>
<g>
</g>
<g>
</g>
<g>
</g>
<g>
</g>
<g>
</g>
<g>
</g>
<g>
</g>
<g>
</g>
<g>
</g>
<g>
</g>
<g>
</g>
<g>
</g>
<g>
</g>
<g>
</g>
</svg>
