<?xml version="1.0" encoding="iso-8859-1"?>
<!-- Generator: Adobe Illustrator 19.0.0, SVG Export Plug-In . SVG Version: 6.00 Build 0)  -->
<svg version="1.1" id="Layer_1" xmlns="http://www.w3.org/2000/svg" xmlns:xlink="http://www.w3.org/1999/xlink" x="0px" y="0px"
	 viewBox="0 0 451.296 451.296" style="enable-background:new 0 0 451.296 451.296;" xml:space="preserve">
<circle style="fill:#EA8953;" cx="225.638" cy="225.638" r="225.638"/>
<path style="opacity:0.1;enable-background:new    ;" d="M352.243,121.029c-1.796-1.909-4.326-3.114-7.143-3.114h-2.21
	l-18.335-18.335c-2.022-1.975-4.795-3.244-7.851-3.244h-209.25c-6.112,0-11.095,4.983-11.095,11.142v236.329
	c0,3.274,1.434,6.175,3.673,8.2l97.481,97.481c9.221,1.148,18.594,1.807,28.126,1.807c124.627,0,225.658-101.031,225.658-225.658
	c0-1.919-0.097-3.814-0.145-5.721l-98.9-98.9L352.243,121.029z"/>
<path style="fill:#3A556A;" d="M107.473,96.355c-6.14,0-11.117,4.978-11.117,11.117v236.332c0,6.14,4.977,11.117,11.117,11.117
	h38.133V96.355H107.473z"/>
<path style="fill:#FCD462;" d="M344.213,180.682h-16.38v-62.779h16.38c5.914,0,10.708,4.794,10.708,10.708v41.363
	C354.921,175.888,350.127,180.682,344.213,180.682z"/>
<path style="fill:#44C4A1;" d="M344.213,243.461h-16.379v-62.779h16.38c5.914,0,10.708,4.794,10.708,10.708v41.362
	C354.921,238.666,350.127,243.461,344.213,243.461z"/>
<path style="fill:#FFFFFF;" d="M344.213,306.239h-16.38v-62.778h16.38c5.914,0,10.708,4.794,10.708,10.708v41.363
	C354.921,301.445,350.127,306.239,344.213,306.239z"/>
<path style="fill:#27A2DB;" d="M316.716,96.355H145.606v258.566L324.562,99.599C322.551,97.595,319.779,96.355,316.716,96.355z"/>
<path style="fill:#2D93BA;" d="M324.562,99.599L145.606,354.921h171.111c6.14,0,11.117-4.977,11.117-11.117V107.472
	C327.833,104.396,326.582,101.612,324.562,99.599z"/>
<g>
	<path style="fill:#FFFFFF;" d="M279.176,251.066c-2.673,1.968-5.462,3.97-8.081,5.752c-0.1,0.068-0.185,0.123-0.282,0.189
		l28.196,41.436c3.392-2.773,6.376-5.36,8.337-7.099c1.428-1.266,1.683-3.389,0.61-4.965l-23.402-34.389
		C283.345,250.212,280.908,249.79,279.176,251.066z"/>
	<path style="fill:#FFFFFF;" d="M263.339,261.12c-11.318,1.512-24.094-4.448-33.805-15.941
		c-12.868-15.229-17.512-36.382-11.534-50.686l-29.223-42.945c-7.265,4.417-13.873,9.318-14.55,12.878
		c-8.376,44.054,56.219,144.615,100.911,148.293c3.577,0.294,10.467-4.016,17.171-9.026L263.339,261.12z"/>
	<path style="fill:#FFFFFF;" d="M205.953,142.244c-2.359,1.156-5.914,2.949-9.79,5.061l28.135,41.347
		c0.023-0.016,0.041-0.029,0.064-0.044c2.673-1.819,5.645-3.72,8.538-5.515c1.833-1.138,2.344-3.568,1.13-5.352l-23.284-34.217
		C209.684,141.964,207.648,141.414,205.953,142.244z"/>
</g>
<g>
</g>
<g>
</g>
<g>
</g>
<g>
</g>
<g>
</g>
<g>
</g>
<g>
</g>
<g>
</g>
<g>
</g>
<g>
</g>
<g>
</g>
<g>
</g>
<g>
</g>
<g>
</g>
<g>
</g>
</svg>
