<svg id="Capa_1" enable-background="new 0 0 501 501" height="512" viewBox="0 0 501 501" width="512" xmlns="http://www.w3.org/2000/svg"><g><path d="m490 256c0 128.576-99.045 234.02-225.001 244.195-6.596.533-13.266-23.695-19.999-23.695s-13.403 24.228-19.999 23.695c-125.956-10.175-225.001-115.619-225.001-244.195 0-135.31 109.69-245 245-245s245 109.69 245 245z" fill="#76b6fa"/><path d="m214 160h-130c-8.284 0-15-6.716-15-15 0-8.284 6.716-15 15-15h130c8.284 0 15 6.716 15 15 0 8.284-6.716 15-15 15zm155 85c0-8.284-6.716-15-15-15h-90c-8.284 0-15 6.716-15 15 0 8.284 6.716 15 15 15h90c8.284 0 15-6.716 15-15zm100 24.234c0-8.284-6.716-15-15-15h-45.077c-8.284 0-15 6.716-15 15 0 8.284 6.716 15 15 15h45.077c8.284 0 15-6.715 15-15zm-264.923 165.766c0-8.284-6.716-15-15-15h-45.077c-8.284 0-15 6.716-15 15 0 8.284 6.716 15 15 15h45.077c8.285 0 15-6.716 15-15zm154.923-10c0-8.284-6.716-15-15-15h-80c-8.284 0-15 6.716-15 15 0 8.284 6.716 15 15 15h80c8.284 0 15-6.716 15-15zm-220-190c0-8.284-6.716-15-15-15h-90c-8.284 0-15 6.716-15 15 0 8.284 6.716 15 15 15h90c8.284 0 15-6.716 15-15z" fill="#a7d0fc"/><path d="m265 370v130.195c-6.596.533-13.266.805-20 .805s-13.404-.272-20-.805v-130.195c0-11.046 8.954-20 20-20s20 8.954 20 20z" fill="#f29500"/><path d="m245 430c-11.046 0-20-8.954-20-20v-390c0-11.046 8.954-20 20-20 11.046 0 20 8.954 20 20v390c0 11.046-8.954 20-20 20z" fill="#ffb52d"/><path d="m411.405 216.1-314.721 57.884c-8.148 1.499-15.967-3.892-17.466-12.039l-12.662-68.845c-1.499-8.148 3.892-15.967 12.039-17.466l314.721-57.884c8.148-1.499 15.967 3.892 17.466 12.039l12.662 68.845c1.499 8.148-3.891 15.968-12.039 17.466z" fill="#453d83"/><path d="m411.405 216.1-222.272 40.881c-27.159 4.995-53.224-12.972-58.22-40.131-4.995-27.159 12.972-53.224 40.131-58.22l222.272-40.881c8.148-1.499 15.967 3.892 17.466 12.039l12.662 68.845c1.499 8.149-3.891 15.969-12.039 17.467z" fill="#51489a"/><path d="m412.762 223.476-314.722 57.885c-12.202 2.244-23.955-5.857-26.199-18.059l-12.662-68.845c-2.244-12.202 5.857-23.955 18.059-26.199l314.721-57.884c12.202-2.244 23.955 5.857 26.199 18.059l12.662 68.845c2.245 12.202-5.857 23.954-18.058 26.198zm-332.81-40.466c-4.068.748-6.768 4.665-6.02 8.733l12.662 68.845c.748 4.068 4.665 6.768 8.733 6.02l314.721-57.884c4.068-.748 6.768-4.665 6.02-8.733l-12.662-68.845c-.748-4.068-4.665-6.768-8.733-6.02z" fill="#8078bf"/><path d="m320.117 174.876-162.252 29.988c-4.073.753-7.985-1.939-8.738-6.012-.753-4.073 1.939-7.985 6.012-8.738l162.252-29.988c4.073-.753 7.985 1.939 8.738 6.012.752 4.073-1.939 7.986-6.012 8.738zm-22.139 26.027c-.753-4.073-4.665-6.765-8.738-6.012l-95.385 17.629c-4.073.753-6.765 4.665-6.012 8.738.753 4.073 4.665 6.765 8.738 6.012l95.385-17.629c4.073-.753 6.765-4.665 6.012-8.738z" fill="#958fca"/><path d="m457.337 44.425 35.1 45c1.41 1.808 1.41 4.343 0 6.15l-35.1 45c-.947 1.215-2.402 1.925-3.943 1.925h-327.317c-4.164 0-6.503-4.792-3.943-8.075l30.303-38.85c1.41-1.808 1.41-4.343 0-6.15l-30.303-38.85c-2.561-3.283-.221-8.075 3.943-8.075h327.318c1.54 0 2.995.71 3.942 1.925z" fill="#82cd64"/><path d="m249.336 142.5h-125.204c-4.164 0-6.504-4.792-3.943-8.075l30.303-38.85c1.41-1.808 1.41-4.343 0-6.15l-30.303-38.85c-2.561-3.283-.221-8.075 3.943-8.075h125.204c-27.614 0-50 22.386-50 50 0 27.614 22.386 50 50 50z" fill="#6dc54a"/><path d="m389 77.5c0 4.142-3.358 7.5-7.5 7.5h-185c-4.142 0-7.5-3.358-7.5-7.5s3.358-7.5 7.5-7.5h185c4.142 0 7.5 3.358 7.5 7.5zm-67.5 22.5h-125c-4.142 0-7.5 3.358-7.5 7.5s3.358 7.5 7.5 7.5h125c4.142 0 7.5-3.358 7.5-7.5s-3.358-7.5-7.5-7.5z" fill="#c0e6b1"/><path d="m82.663 379.809-35.1-45c-1.41-1.808-1.41-4.343 0-6.15l35.1-45c.947-1.215 2.402-1.925 3.943-1.925h327.318c4.164 0 6.503 4.792 3.943 8.075l-30.303 38.85c-1.41 1.808-1.41 4.343 0 6.15l30.303 38.85c2.561 3.283.221 8.075-3.943 8.075h-327.318c-1.541 0-2.996-.71-3.943-1.925z" fill="#f44545"/><path d="m184.773 381.734h-100.113c-1.541 0-2.995-.71-3.943-1.925l-35.1-45c-1.41-1.808-1.41-4.343 0-6.15l35.1-45c.948-1.215 2.402-1.925 3.943-1.925h100.114c-27.614 0-50 22.386-50 50s22.385 50 49.999 50z" fill="#c50048"/><path d="m154.791 316.734c0-4.142 3.358-7.5 7.5-7.5h185c4.142 0 7.5 3.358 7.5 7.5 0 4.142-3.358 7.5-7.5 7.5h-185c-4.142 0-7.5-3.358-7.5-7.5zm67.5 37.5h125c4.142 0 7.5-3.358 7.5-7.5 0-4.142-3.358-7.5-7.5-7.5h-125c-4.142 0-7.5 3.358-7.5 7.5 0 4.142 3.358 7.5 7.5 7.5z" fill="#fd9a9a"/><path d="m453.395 150h-327.318c-4.816 0-9.12-2.688-11.233-7.016s-1.585-9.375 1.377-13.172l29.103-37.312-29.103-37.312c-2.962-3.797-3.49-8.844-1.377-13.172s6.417-7.016 11.233-7.016h327.317c3.879 0 7.472 1.754 9.856 4.813l35.101 44.999c3.531 4.526 3.531 10.85-.001 15.376l-35.1 45c-2.384 3.058-5.976 4.812-9.855 4.812zm-322.197-15h320.976l33.15-42.5-33.15-42.5h-320.976l27.153 34.812c3.53 4.527 3.53 10.849 0 15.375zm263.478 196.734 29.103-37.312c2.962-3.797 3.49-8.844 1.377-13.172s-6.417-7.016-11.233-7.016h-327.318c-3.879 0-7.472 1.754-9.856 4.812l-35.1 45c-3.532 4.527-3.532 10.85-.001 15.376l35.101 44.999c2.385 3.059 5.978 4.813 9.856 4.813h327.317c4.816 0 9.12-2.688 11.233-7.016s1.585-9.375-1.377-13.172zm-306.85 42.5-33.15-42.5 33.15-42.5h320.976l-27.154 34.813c-3.53 4.526-3.53 10.849 0 15.375l27.153 34.812zm345.749-259.21 20.291-20.291c1.233-1.233 1.233-3.233 0-4.466l-20.291-20.291c-1.99-1.99-5.391-.58-5.391 2.233v40.581c0 2.814 3.402 4.223 5.391 2.234zm-317.968 237.001v-40.581c0-2.814-3.402-4.223-5.391-2.233l-20.291 20.291c-1.233 1.233-1.233 3.233 0 4.466l20.291 20.291c1.989 1.989 5.391.58 5.391-2.234z" fill="#ffe7c0"/></g></svg>